<svg xmlns="http://www.w3.org/2000/svg" width="512" height="512" viewBox="0 0 512 512" version="1.1"><path d="M 251.399 45.510 C 251.841 48.527, 253.589 49.098, 260.283 48.412 C 265.642 47.863, 266.639 47.496, 265.599 46.456 C 264.799 45.656, 262.903 45.368, 260.540 45.686 C 257.946 46.036, 256.974 45.851, 257.440 45.098 C 257.882 44.381, 256.912 44, 254.648 44 C 252.121 44, 251.237 44.411, 251.399 45.510 M 229.250 48.689 C 230.213 48.941, 231.787 48.941, 232.750 48.689 C 233.713 48.438, 232.925 48.232, 231 48.232 C 229.075 48.232, 228.287 48.438, 229.250 48.689 M 198.079 58.183 C 198.005 59.755, 195.281 61.309, 193.354 60.878 C 192.884 60.773, 191.375 61.179, 190 61.780 C 187.708 62.782, 187.874 62.876, 192 62.910 C 197.109 62.953, 206.674 59.228, 201.833 59.081 C 200.367 59.036, 198.940 58.438, 198.662 57.750 C 198.350 56.977, 198.128 57.142, 198.079 58.183 M 335 67.893 C 335 68.814, 337.367 70, 339.204 70 C 339.834 70, 339.754 69.408, 339 68.500 C 337.641 66.863, 335 66.462, 335 67.893 M 345.621 69.456 C 344.004 71.924, 344.028 71.967, 348.205 73.985 C 350.525 75.106, 351.878 75.478, 351.211 74.811 C 350.545 74.145, 349.986 72.902, 349.968 72.050 C 349.951 71.198, 349.333 69.704, 348.595 68.732 C 347.337 67.075, 347.151 67.120, 345.621 69.456 M 363.004 77.496 C 361.714 78.869, 360.848 80.160, 361.079 80.364 C 361.311 80.569, 362.547 79.446, 363.826 77.868 C 366.689 74.338, 366.185 74.110, 363.004 77.496 M 121.875 86.500 C 121.806 86.775, 121.673 87.563, 121.580 88.250 C 121.486 88.938, 120.867 89.388, 120.205 89.250 C 119.542 89.112, 119 89.477, 119 90.059 C 119 90.641, 118.438 90.794, 117.750 90.399 C 117.063 90.003, 116.842 90.056, 117.259 90.515 C 117.677 90.975, 117.002 92.464, 115.759 93.824 L 113.500 96.296 116 95.528 C 117.375 95.105, 119.794 94.659, 121.375 94.537 C 123.749 94.354, 124.480 93.635, 125.572 90.408 C 126.759 86.903, 126.742 86.706, 125.408 88.495 C 124.163 90.166, 123.775 90.255, 123.026 89.043 C 122.535 88.247, 122.354 87.237, 122.625 86.798 C 122.896 86.359, 122.866 86, 122.559 86 C 122.252 86, 121.944 86.225, 121.875 86.500 M 105.084 104.750 C 102.845 107.362, 101.010 109.878, 101.006 110.340 C 101.003 110.802, 100.028 111.966, 98.841 112.928 C 97.626 113.912, 96.996 115.184, 97.400 115.838 C 98.766 118.049, 100.610 116.982, 102.741 112.750 C 103.918 110.412, 106.058 106.588, 107.497 104.250 C 108.936 101.912, 109.898 100, 109.634 100 C 109.371 100, 107.324 102.138, 105.084 104.750 M 404 112.500 C 407.543 116.075, 410.667 119, 410.942 119 C 411.217 119, 408.543 116.075, 405 112.500 C 401.457 108.925, 398.333 106, 398.058 106 C 397.783 106, 400.457 108.925, 404 112.500 M 89.453 111.250 L 85.500 115.500 89.750 111.547 C 92.088 109.373, 94 107.460, 94 107.297 C 94 106.540, 93.129 107.298, 89.453 111.250 M 80.946 135.750 L 77.500 139.500 81.250 136.054 C 83.313 134.158, 85 132.471, 85 132.304 C 85 131.540, 84.154 132.260, 80.946 135.750 M 72.924 142.720 C 71.591 144.216, 71.216 144.894, 72.092 144.228 C 72.968 143.562, 73.980 143.238, 74.342 143.509 C 74.704 143.779, 74.779 143.704, 74.509 143.342 C 74.238 142.980, 74.519 142.080, 75.131 141.342 C 77.217 138.829, 75.358 139.989, 72.924 142.720 M 104 158.622 C 104 159.951, 104.271 160.020, 105.500 159 C 106.325 158.315, 107 157.585, 107 157.378 C 107 157.170, 106.325 157, 105.500 157 C 104.675 157, 104 157.730, 104 158.622 M 92.089 163.097 C 91.414 165.351, 91.038 167.371, 91.254 167.587 C 91.469 167.803, 92.864 166.707, 94.354 165.152 C 96.087 163.343, 96.832 161.727, 96.424 160.663 C 95.311 157.763, 93.359 158.860, 92.089 163.097 M 38.524 177.357 C 38.236 178.261, 37.789 179.675, 37.531 180.500 C 37.274 181.325, 37.285 182, 37.556 182 C 38.321 182, 40.120 176.787, 39.552 176.218 C 39.274 175.941, 38.811 176.453, 38.524 177.357 M 38.150 187.750 C 38.001 190.985, 39.237 192.044, 40.595 189.845 C 41.022 189.156, 40.871 188.961, 40.223 189.362 C 39.567 189.767, 38.970 188.936, 38.718 187.267 C 38.325 184.671, 38.290 184.701, 38.150 187.750 M 60.286 192.500 C 60.294 195.250, 60.488 196.256, 60.718 194.736 C 60.947 193.216, 60.941 190.966, 60.704 189.736 C 60.467 188.506, 60.279 189.750, 60.286 192.500 M 454.014 202.583 C 454.036 205.722, 455.168 209.014, 456.040 208.475 C 456.487 208.199, 456.450 206.568, 455.957 204.851 C 454.860 201.024, 453.995 200.016, 454.014 202.583 M 332.999 217.250 C 331.847 219.956, 306 303.370, 306 304.383 C 306 304.772, 308.991 304.958, 312.646 304.796 L 319.292 304.500 332.999 260.500 C 340.538 236.300, 346.521 216.162, 346.294 215.750 C 346.067 215.338, 343.199 215, 339.920 215 C 334.687 215, 333.840 215.275, 332.999 217.250 M 56.300 221 C 56.300 224.025, 56.487 225.262, 56.716 223.750 C 56.945 222.238, 56.945 219.762, 56.716 218.250 C 56.487 216.738, 56.300 217.975, 56.300 221 M 199.591 220.573 C 188.358 224.689, 182.943 234.649, 185.923 245.715 C 188.257 254.382, 194.209 258.662, 208.720 262.109 C 213.523 263.249, 218.720 264.838, 220.269 265.639 C 225.656 268.425, 226.203 276.122, 221.288 279.988 C 219.382 281.487, 217.228 282, 212.833 282 C 205.543 282, 201.394 280.326, 195.721 275.097 L 191.321 271.041 187.182 276.128 C 182.513 281.868, 182.636 283.095, 188.318 287.429 C 195.606 292.988, 200.657 294.461, 212.500 294.481 C 221.930 294.497, 224.085 294.187, 227.595 292.309 C 239.258 286.068, 243.230 271.895, 236.523 260.450 C 233.388 255.100, 226.960 251.715, 215.078 249.160 C 203.441 246.657, 200.500 244.708, 200.500 239.500 C 200.500 233.929, 204.168 231.473, 212.324 231.584 C 218.280 231.665, 225.874 234.370, 227.491 236.986 C 228.584 238.753, 229.478 238.128, 233.436 232.825 L 237.300 227.651 234.400 225.318 C 229.112 221.064, 221.758 218.993, 212.212 219.070 C 207.318 219.110, 201.787 219.769, 199.591 220.573 M 246 226 L 246 232 256.500 232 L 267 232 267 263 L 267 294 274.500 294 L 282 294 282 263 L 282 232 292.500 232 L 303 232 303 226 L 303 220 274.500 220 L 246 220 246 226 M 62.252 227.500 C 62.263 229.700, 62.468 230.482, 62.707 229.238 C 62.946 227.994, 62.937 226.194, 62.687 225.238 C 62.437 224.282, 62.241 225.300, 62.252 227.500 M 150.500 242.944 L 128.500 251.792 128.500 257.979 L 128.500 264.167 150.500 273.055 C 162.600 277.944, 172.838 281.956, 173.250 281.972 C 173.662 281.987, 174 279.132, 174 275.626 L 174 269.252 160 264 C 152.300 261.111, 146 258.411, 146 258 C 146 257.589, 152.300 254.889, 160 252 L 174 246.748 174 240.374 C 174 236.868, 173.662 234.022, 173.250 234.048 C 172.838 234.075, 162.600 238.078, 150.500 242.944 M 355 240.300 L 355 246.735 369 252.035 C 376.700 254.951, 383 257.654, 383 258.042 C 383 258.430, 376.700 261.111, 369 264 L 355 269.252 355 275.693 C 355 281.373, 355.207 282.069, 356.750 281.578 C 357.712 281.272, 367.950 277.235, 379.500 272.608 L 400.500 264.195 400.500 258 L 400.500 251.805 379.500 243.392 C 367.950 238.765, 357.712 234.728, 356.750 234.422 C 355.207 233.931, 355 234.626, 355 240.300 M 64.094 314.500 C 64.069 317.550, 64.291 318.105, 65.031 316.838 C 65.642 315.790, 65.654 314.312, 65.064 312.838 C 64.244 310.793, 64.123 311.001, 64.094 314.500 M 451.500 320 C 451.125 321.183, 451.042 322.376, 451.317 322.651 C 451.592 322.926, 452.125 322.183, 452.500 321 C 452.875 319.817, 452.958 318.624, 452.683 318.349 C 452.408 318.074, 451.875 318.817, 451.500 320 M 67.252 326.500 C 67.263 328.700, 67.468 329.482, 67.707 328.238 C 67.946 326.994, 67.937 325.194, 67.687 324.238 C 67.437 323.282, 67.241 324.300, 67.252 326.500 M 428.476 351.075 C 427.512 354.112, 428.486 354.424, 429.816 351.504 C 430.444 350.127, 430.547 349, 430.046 349 C 429.545 349, 428.838 349.934, 428.476 351.075 M 428.755 360.500 C 429.018 361.875, 429.406 363, 429.617 363 C 429.827 363, 430 361.875, 430 360.500 C 430 359.125, 429.612 358, 429.139 358 C 428.665 358, 428.492 359.125, 428.755 360.500 M 418.583 379.643 C 417.631 382.126, 418.681 382.465, 419.954 380.086 C 420.568 378.938, 420.653 378, 420.142 378 C 419.632 378, 418.930 378.739, 418.583 379.643 M 410.232 388 C 410.232 389.925, 410.438 390.712, 410.689 389.750 C 410.941 388.788, 410.941 387.212, 410.689 386.250 C 410.438 385.288, 410.232 386.075, 410.232 388 M 385.455 418.351 C 383.521 420.478, 382.875 422, 383.906 422 C 384.469 422, 385.432 421.061, 386.046 419.914 C 387.325 417.524, 386.997 416.655, 385.455 418.351 M 322 444.551 L 319.500 446.030 322.423 445.765 C 324.030 445.619, 325.530 444.938, 325.756 444.250 C 326.291 442.622, 325.096 442.718, 322 444.551 M 312.250 448.491 C 310.462 449.268, 309.007 450.488, 309.015 451.202 C 309.028 452.265, 309.179 452.266, 309.854 451.203 C 310.511 450.166, 310.935 450.217, 311.961 451.453 C 312.667 452.304, 313.942 453, 314.794 453 C 315.646 453, 317.165 453.745, 318.171 454.655 C 319.265 455.645, 320 455.846, 320 455.155 C 320 454.520, 319.570 454, 319.045 454 C 318.520 454, 317.795 452.425, 317.434 450.500 C 316.694 446.553, 316.701 446.556, 312.250 448.491 M 340.755 451.500 C 341.018 452.875, 341.406 454, 341.617 454 C 341.827 454, 342 452.875, 342 451.500 C 342 450.125, 341.612 449, 341.139 449 C 340.665 449, 340.492 450.125, 340.755 451.500 M 332.453 457.250 L 328.500 461.500 332.750 457.547 C 336.702 453.871, 337.460 453, 336.703 453 C 336.540 453, 334.627 454.913, 332.453 457.250 M 298.252 457.500 C 298.263 459.700, 298.468 460.482, 298.707 459.238 C 298.946 457.994, 298.937 456.194, 298.687 455.238 C 298.437 454.282, 298.241 455.300, 298.252 457.500 M 217.500 459.974 C 219.410 460.820, 225.785 461.391, 224.917 460.639 C 224.688 460.441, 222.475 460.011, 220 459.683 C 216.995 459.286, 216.165 459.383, 217.500 459.974" stroke="none" fill="#f7f8fc" fill-rule="evenodd"/><path d="M 227.115 38.908 C 226.179 39.501, 225.950 40.664, 226.410 42.496 C 227.040 45.008, 227.359 45.155, 230.787 44.512 C 235.913 43.551, 236.196 43.229, 234.374 40.448 C 232.749 37.967, 229.641 37.308, 227.115 38.908 M 277 41.877 C 279.721 42.727, 280.205 42.571, 268.500 44.609 C 264.985 45.221, 263.920 46.472, 266.250 47.252 C 266.938 47.482, 264.351 47.993, 260.502 48.388 C 254.217 49.033, 253.340 48.903, 251.884 47.105 C 250.993 46.005, 249.111 44.815, 247.702 44.461 C 245.467 43.901, 245.210 44.086, 245.686 45.909 C 246.124 47.580, 245.774 48, 243.945 48 C 242.687 48, 240.827 47.248, 239.812 46.330 C 238.079 44.761, 237.843 44.792, 235.944 46.830 C 234.210 48.691, 232.823 49.002, 226.211 49.017 C 221.970 49.027, 215.381 49.695, 211.569 50.503 C 207.757 51.311, 204.462 51.796, 204.247 51.581 C 204.033 51.366, 205.208 50.894, 206.859 50.531 C 210.316 49.772, 212.765 47.351, 211.408 46.035 C 210.908 45.552, 208.813 44.846, 206.750 44.467 C 203.397 43.850, 203 43.998, 203 45.859 C 203 47.012, 201.662 48.929, 200 50.158 C 198.350 51.378, 197.014 53.079, 197.032 53.938 C 197.084 56.493, 199.553 58.994, 202.110 59.081 C 206.655 59.235, 196.846 62.950, 192 62.910 C 187.977 62.877, 187.765 62.767, 190 61.868 C 192.430 60.890, 192.446 60.822, 190.559 59.431 C 188.247 57.727, 185.607 57.605, 182.859 59.076 C 181.047 60.045, 180.955 59.953, 181.924 58.141 C 182.516 57.036, 183 55.930, 183 55.684 C 183 55.243, 177.790 56.734, 155.035 63.689 C 148.730 65.617, 140.180 68.902, 136.035 70.991 C 128.652 74.711, 118 82.381, 118 83.977 C 118 84.420, 119.143 85.070, 120.541 85.421 C 121.938 85.772, 122.868 86.404, 122.607 86.827 C 122.346 87.250, 122.535 88.247, 123.026 89.043 C 123.775 90.255, 124.163 90.166, 125.408 88.495 C 126.742 86.706, 126.759 86.903, 125.572 90.408 C 124.480 93.635, 123.749 94.354, 121.375 94.537 C 119.794 94.659, 117.375 95.102, 116 95.522 C 113.516 96.280, 113.519 96.264, 116.500 92.988 C 120.161 88.965, 119.291 89.448, 106 98.822 C 96.397 105.595, 85 115.502, 85 117.077 C 85 117.432, 86.072 117.518, 87.383 117.267 C 91.470 116.486, 91.080 118.430, 85.851 124.892 C 80.808 131.125, 79.566 134.219, 84.004 129.496 C 85.293 128.123, 86.720 127, 87.174 127 C 89.372 127, 87.189 129.846, 78.021 138.931 L 68.041 148.820 69.189 152.113 L 70.337 155.405 72.418 148.953 C 73.808 144.646, 75.082 142.392, 76.250 142.177 C 78.625 141.738, 78.511 143.066, 75 156.781 C 73.350 163.226, 71.662 171.608, 71.250 175.406 L 70.500 182.312 67.976 177.715 L 65.452 173.118 60.849 178.870 C 56.081 184.829, 52.520 190.853, 53.302 191.636 C 53.550 191.883, 54.693 190.491, 55.842 188.543 C 58.260 184.444, 59.521 184.084, 60.370 187.250 C 61.378 191.011, 61.059 195.071, 58.984 204.902 C 57.893 210.073, 57.037 217.498, 57.082 221.402 C 57.162 228.420, 57.179 228.464, 58.584 225.250 C 61.620 218.310, 63.972 223.709, 61.987 233.061 C 60.575 239.714, 58.430 241.287, 59.266 235.056 C 59.778 231.233, 59.698 231.102, 56.647 230.806 L 53.500 230.500 52.782 221 C 52.066 211.527, 50.879 207, 49.109 207 C 48.596 207, 47.884 208.726, 47.528 210.835 C 46.805 215.111, 48.508 223.444, 52.450 234.925 C 53.853 239.009, 55 243.942, 55 245.887 L 55 249.424 51.923 245.962 C 50.149 243.966, 49.091 243.276, 49.423 244.332 C 49.740 245.339, 50 246.577, 50 247.082 C 50 247.587, 50.675 248, 51.500 248 C 53.170 248, 53.348 249.049, 53.024 257 C 52.761 263.442, 52.541 263.819, 49.968 262.212 C 48.901 261.545, 47.626 261, 47.136 261 C 45.826 261, 47.011 270.328, 48.472 271.508 C 49.780 272.564, 54.919 293.178, 57.070 306 C 57.813 310.426, 59.045 314.199, 60.075 315.206 C 61.036 316.144, 62.121 318.276, 62.488 319.944 C 62.854 321.612, 63.611 323.259, 64.169 323.604 C 64.844 324.022, 64.944 321.931, 64.469 317.366 C 64.076 313.590, 63.999 310.727, 64.298 311.005 C 65.407 312.033, 68 325.284, 68 329.926 C 68 334.718, 69.595 344.929, 70.483 345.816 C 70.741 346.074, 71.616 345.734, 72.428 345.060 C 73.661 344.037, 74.159 344.445, 75.452 347.539 C 77.391 352.180, 77.390 353, 75.443 353 C 74.034 353, 74.034 353.211, 75.443 355.223 C 76.299 356.445, 77 358.452, 77 359.684 C 77 360.915, 77.985 362.840, 79.189 363.961 C 81.874 366.463, 83.141 366.580, 82.321 364.250 C 81.909 363.078, 82.038 362.830, 82.713 363.500 C 84.518 365.293, 88.700 374.370, 90.400 380.186 C 91.909 385.349, 92.794 386.477, 100.023 392.458 C 104.402 396.081, 107.890 399.373, 107.773 399.773 C 107.540 400.574, 117.864 410.486, 128 419.192 C 134.533 424.803, 149.221 434.717, 157.535 439.128 C 159.991 440.431, 161.850 441.948, 161.665 442.499 C 161.480 443.049, 165.643 445.880, 170.915 448.790 C 197.078 463.228, 212.033 469, 223.275 469 L 228.230 469 226.592 466.500 C 225.691 465.125, 225.381 464, 225.904 464 C 226.426 464, 226.999 463.278, 227.177 462.395 C 227.457 461.002, 229.425 460.810, 242.117 460.940 C 258.161 461.104, 269.506 459.993, 284 456.837 C 300.527 453.239, 299 453.089, 299 458.315 C 299 462.955, 300.812 466, 303.571 466 C 305.492 466, 305.373 465.373, 303 463 C 298.017 458.017, 303.214 451.137, 314.633 447.600 C 316.466 447.032, 316.859 447.436, 317.428 450.470 C 318.082 453.953, 319.294 454.951, 320.500 453 C 320.840 452.450, 322.779 451.989, 324.809 451.976 C 328.060 451.954, 330.972 451.466, 339.750 449.473 C 341.614 449.050, 342 449.386, 342 451.433 L 342 453.904 346.750 452.463 C 349.363 451.670, 351.560 451.017, 351.633 451.011 C 352.549 450.937, 352.610 455.787, 351.708 456.936 C 350.673 458.256, 350.858 458.246, 353 456.866 C 354.375 455.981, 355.275 455.010, 355 454.709 C 354.725 454.407, 355.499 453.097, 356.721 451.797 L 358.941 449.433 352.325 449.237 C 345.141 449.024, 344.004 448.596, 345.817 446.783 C 346.468 446.132, 347 444.211, 347 442.513 L 347 439.426 353.250 440.059 C 359.334 440.675, 359.580 440.607, 362.500 437.494 C 364.150 435.735, 367.525 433.277, 370 432.032 C 372.475 430.787, 376.434 428.358, 378.797 426.634 C 383.055 423.529, 387.816 419.675, 385.273 421.393 C 383.409 422.651, 382.636 421.515, 384.236 419.869 C 384.968 419.116, 386.775 416.420, 388.251 413.878 L 390.934 409.257 387.059 410.592 C 383.455 411.833, 372.190 413.975, 369.173 413.992 C 368.444 413.997, 369.299 412.778, 371.075 411.284 C 372.850 409.790, 375.178 408.552, 376.248 408.534 C 377.581 408.511, 379.627 406.140, 382.748 401 C 387.171 393.717, 394.114 384.094, 398.623 379 C 418.672 356.348, 428.134 343.526, 436.587 327.554 C 440.029 321.051, 443.051 316.538, 444.158 316.248 C 445.610 315.869, 446.003 314.786, 446.015 311.133 C 446.034 305.584, 446.952 303.726, 449.026 305.037 C 449.837 305.550, 451.352 305.976, 452.392 305.985 C 454.136 305.999, 454.220 305.508, 453.461 299.750 C 452.416 291.822, 452.360 286.023, 453.303 283.614 C 454.015 281.797, 454.114 281.793, 456.027 283.524 C 458.903 286.127, 459.580 284.613, 457.552 280.115 C 455.829 276.295, 455.837 276.163, 457.895 274.105 C 459.053 272.947, 460 271.347, 460 270.550 C 460 269.752, 460.708 268.703, 461.574 268.219 C 462.981 267.431, 462.875 266.234, 460.575 256.919 C 457.634 245.007, 457.435 242.431, 459.402 241.676 C 461.492 240.874, 461.988 241.900, 460.897 244.770 C 459.897 247.401, 460.946 248.950, 463.750 248.985 C 465.525 249.006, 465.303 246.194, 463 239.500 C 461.900 236.303, 461 232.182, 461 230.343 C 461 227.652, 460.605 227, 458.973 227 C 457.020 227, 456.954 226.477, 457.188 212.895 L 457.431 198.790 454.788 196.864 C 452.845 195.448, 451.293 192.364, 448.931 185.219 C 444.881 172.970, 438.254 158.083, 433.110 149.680 C 430.927 146.113, 429.374 142.959, 429.661 142.673 C 429.947 142.386, 428.438 140.205, 426.307 137.826 C 424.176 135.447, 419.882 130.327, 416.765 126.449 C 410.172 118.245, 393.927 102.342, 385.999 96.331 C 380.351 92.048, 363.864 81.459, 361.708 80.730 C 360.970 80.480, 361.961 78.699, 364.250 76.158 C 366.313 73.868, 368 71.741, 368 71.431 C 368 70.092, 365.841 67, 364.906 67 C 364.343 67, 364.176 67.476, 364.535 68.057 C 365.805 70.112, 363.932 73.984, 360.913 75.545 C 357.472 77.324, 354.274 76.917, 348.048 73.909 C 344.486 72.188, 344.148 71.736, 345.184 70.077 C 346.123 68.574, 346.019 67.678, 344.668 65.616 C 342.764 62.711, 325.880 51, 323.594 51 C 322.779 51, 320.867 52.070, 319.347 53.378 L 316.582 55.756 312.614 50.878 C 308.914 46.329, 308.337 46, 304.070 46 C 301.553 46, 296.570 45.165, 292.997 44.144 C 286.790 42.372, 271.768 40.242, 277 41.877 M 170.723 70.077 C 166.112 72.844, 164.034 74.680, 164.223 75.822 C 164.434 77.099, 163.613 77.574, 160.790 77.808 C 158.142 78.028, 156.372 78.958, 154.605 81.058 C 153.243 82.676, 151.875 84, 151.565 84 C 150.167 84, 151.304 81.936, 155.037 77.696 C 158.867 73.344, 158.972 73.055, 157.094 72.050 C 154.631 70.732, 150.039 72.563, 149.919 74.911 C 149.574 81.664, 149.250 82.261, 142.215 89.131 C 138.244 93.008, 135 95.500, 135 94.671 C 135 92.487, 138.860 83.821, 140.821 81.600 C 142.436 79.773, 142.386 79.728, 139.500 80.424 C 137.850 80.821, 134.586 81.989, 132.247 83.019 C 128.238 84.783, 128.059 85.034, 129.132 87.391 C 130.078 89.467, 129.819 91.114, 127.606 97.083 C 126.140 101.038, 125.144 104.477, 125.392 104.725 C 125.640 104.973, 127.791 104.048, 130.171 102.669 C 132.552 101.290, 137.721 99.194, 141.658 98.011 C 150.006 95.504, 153.060 92.927, 151.206 89.958 C 148.992 86.414, 149.712 85.240, 154.134 85.179 C 156.428 85.147, 160.324 84.062, 162.884 82.741 C 175.659 76.152, 178.253 74.464, 179.124 72.175 C 180.049 69.742, 179.477 65.995, 178.183 66.005 C 177.807 66.008, 174.450 67.841, 170.723 70.077 M 335 67.893 C 335 68.814, 337.367 70, 339.204 70 C 339.834 70, 339.754 69.408, 339 68.500 C 337.641 66.863, 335 66.462, 335 67.893 M 348 67.786 C 348 68.389, 348.450 69.160, 349 69.500 C 349.550 69.840, 350 70.991, 350 72.059 C 350 73.127, 350.450 74, 351 74 C 352.739 74, 352.082 70.384, 350 68.500 C 348.900 67.505, 348 67.183, 348 67.786 M 105.084 104.750 C 102.845 107.362, 101.010 109.878, 101.006 110.340 C 101.003 110.802, 100.028 111.966, 98.841 112.928 C 97.626 113.912, 96.996 115.184, 97.400 115.838 C 98.766 118.049, 100.610 116.982, 102.741 112.750 C 103.918 110.412, 106.058 106.588, 107.497 104.250 C 108.936 101.912, 109.898 100, 109.634 100 C 109.371 100, 107.324 102.138, 105.084 104.750 M 63.661 153.823 C 61.831 155.845, 61.428 159, 63 159 C 63.550 159, 64.007 159.787, 64.015 160.750 C 64.028 162.220, 64.180 162.264, 64.963 161.026 C 65.571 160.065, 65.498 159.308, 64.754 158.848 C 63.907 158.324, 63.930 157.449, 64.844 155.442 C 66.368 152.098, 65.856 151.397, 63.661 153.823 M 104 158.622 C 104 159.951, 104.271 160.020, 105.500 159 C 106.325 158.315, 107 157.585, 107 157.378 C 107 157.170, 106.325 157, 105.500 157 C 104.675 157, 104 157.730, 104 158.622 M 92.089 163.097 C 91.414 165.351, 91.038 167.371, 91.254 167.587 C 91.469 167.803, 92.864 166.707, 94.354 165.152 C 96.087 163.343, 96.832 161.727, 96.424 160.663 C 95.311 157.763, 93.359 158.860, 92.089 163.097 M 99.203 162.181 C 95.588 168.934, 89.524 172.357, 88.820 168.042 C 88.540 166.332, 87.907 166.616, 83.799 170.292 C 78.604 174.942, 78.595 174.976, 78.855 189.809 C 78.949 195.182, 79.361 197.895, 80.022 197.486 C 80.585 197.139, 82.446 194.079, 84.158 190.687 C 85.870 187.296, 89.939 180.552, 93.200 175.702 C 98.442 167.907, 102.819 159, 101.409 159 C 101.133 159, 100.140 160.432, 99.203 162.181 M 49.343 165.721 C 47.778 169.466, 48.295 171.932, 50.821 172.774 C 51.632 173.044, 52 171.425, 52 167.583 C 52 164.512, 51.752 162, 51.449 162 C 51.146 162, 50.198 163.674, 49.343 165.721 M 45.120 180 C 42.638 184.417, 41.888 184.745, 39.569 182.426 C 38.136 180.993, 37.933 181.010, 37.317 182.616 C 36.926 183.635, 37.138 184.546, 37.820 184.773 C 38.469 184.990, 39 186.299, 39 187.682 C 39 190.072, 39.299 189.939, 44.988 185.011 C 50.097 180.584, 50.826 179.543, 49.953 177.912 C 48.475 175.151, 47.643 175.510, 45.120 180 M 454.014 202.583 C 454.036 205.722, 455.168 209.014, 456.040 208.475 C 456.487 208.199, 456.450 206.568, 455.957 204.851 C 454.860 201.024, 453.995 200.016, 454.014 202.583 M 68.950 204.273 C 67.190 208.051, 68.715 214.500, 71.367 214.500 C 72.668 214.500, 73.804 213.052, 75.107 209.734 L 76.980 204.967 74.671 205.547 C 72.911 205.988, 72.110 205.576, 71.302 203.813 L 70.242 201.500 68.950 204.273 M 332.999 217.250 C 331.847 219.956, 306 303.370, 306 304.383 C 306 304.772, 308.991 304.958, 312.646 304.796 L 319.292 304.500 332.999 260.500 C 340.538 236.300, 346.521 216.162, 346.294 215.750 C 346.067 215.338, 343.199 215, 339.920 215 C 334.687 215, 333.840 215.275, 332.999 217.250 M 199.591 220.573 C 188.358 224.689, 182.943 234.649, 185.923 245.715 C 188.257 254.382, 194.209 258.662, 208.720 262.109 C 213.523 263.249, 218.720 264.838, 220.269 265.639 C 225.656 268.425, 226.203 276.122, 221.288 279.988 C 219.382 281.487, 217.228 282, 212.833 282 C 205.543 282, 201.394 280.326, 195.721 275.097 L 191.321 271.041 187.182 276.128 C 182.513 281.868, 182.636 283.095, 188.318 287.429 C 195.606 292.988, 200.657 294.461, 212.500 294.481 C 221.930 294.497, 224.085 294.187, 227.595 292.309 C 239.258 286.068, 243.230 271.895, 236.523 260.450 C 233.388 255.100, 226.960 251.715, 215.078 249.160 C 203.441 246.657, 200.500 244.708, 200.500 239.500 C 200.500 233.929, 204.168 231.473, 212.324 231.584 C 218.280 231.665, 225.874 234.370, 227.491 236.986 C 228.584 238.753, 229.478 238.128, 233.436 232.825 L 237.300 227.651 234.400 225.318 C 229.112 221.064, 221.758 218.993, 212.212 219.070 C 207.318 219.110, 201.787 219.769, 199.591 220.573 M 246 226 L 246 232 256.500 232 L 267 232 267 263 L 267 294 274.500 294 L 282 294 282 263 L 282 232 292.500 232 L 303 232 303 226 L 303 220 274.500 220 L 246 220 246 226 M 150.500 242.944 L 128.500 251.792 128.500 257.979 L 128.500 264.167 150.500 273.055 C 162.600 277.944, 172.838 281.956, 173.250 281.972 C 173.662 281.987, 174 279.132, 174 275.626 L 174 269.252 160 264 C 152.300 261.111, 146 258.411, 146 258 C 146 257.589, 152.300 254.889, 160 252 L 174 246.748 174 240.374 C 174 236.868, 173.662 234.022, 173.250 234.048 C 172.838 234.075, 162.600 238.078, 150.500 242.944 M 355 240.300 L 355 246.735 369 252.035 C 376.700 254.951, 383 257.654, 383 258.042 C 383 258.430, 376.700 261.111, 369 264 L 355 269.252 355 275.693 C 355 281.373, 355.207 282.069, 356.750 281.578 C 357.712 281.272, 367.950 277.235, 379.500 272.608 L 400.500 264.195 400.500 258 L 400.500 251.805 379.500 243.392 C 367.950 238.765, 357.712 234.728, 356.750 234.422 C 355.207 233.931, 355 234.626, 355 240.300 M 451.975 310.565 C 450.750 313.789, 450.685 321.170, 451.902 319 C 452.794 317.409, 454.034 308, 453.352 308 C 453.131 308, 452.512 309.154, 451.975 310.565 M 434.412 338.750 C 434.038 340.813, 433.106 343.738, 432.341 345.250 C 431.139 347.623, 431.147 348, 432.393 348 C 435.187 348, 437.089 346.729, 438.564 343.875 C 439.947 341.202, 439.895 340.776, 437.839 337.997 C 436.621 336.348, 435.504 335, 435.357 335 C 435.211 335, 434.785 336.688, 434.412 338.750 M 425.662 359.177 C 423.663 364.268, 424.154 365.240, 426.618 361.069 C 429.943 355.440, 431.326 358.582, 428.500 365.346 C 425.623 372.230, 427.138 373.825, 432.675 369.740 C 435.336 367.777, 435.546 367.300, 434.275 366.112 C 433.210 365.117, 432.985 363.587, 433.448 360.496 C 433.957 357.104, 433.758 356.121, 432.461 355.623 C 428.815 354.224, 427.296 355.019, 425.662 359.177 M 404.625 385.591 C 400.312 390.439, 399.813 391.463, 400.302 394.475 C 400.778 397.404, 400.551 397.933, 398.677 398.260 C 396.677 398.608, 396.721 398.703, 399.215 399.419 C 401.260 400.007, 402.567 399.699, 404.505 398.175 L 407.080 396.150 404.800 395.825 C 403.546 395.646, 402.370 394.712, 402.187 393.750 C 401.913 392.315, 402.587 392, 405.927 392 L 410 392 410 386 C 410 382.700, 409.887 380.025, 409.750 380.055 C 409.613 380.086, 407.306 382.577, 404.625 385.591 M 415.577 386.878 C 414.160 389.123, 413 391.221, 413 391.540 C 413 391.860, 414.636 391.981, 416.636 391.810 C 418.966 391.612, 420.763 390.756, 421.640 389.428 C 422.858 387.583, 422.742 387.106, 420.581 385.076 L 418.154 382.796 415.577 386.878 M 396.306 404.560 C 394.263 406.425, 394.066 406.847, 395.582 406.115 C 397.657 405.113, 400.756 402, 399.678 402 C 399.367 402, 397.849 403.152, 396.306 404.560 M 322 444.551 L 319.500 446.030 322.423 445.765 C 324.030 445.619, 325.530 444.938, 325.756 444.250 C 326.291 442.622, 325.096 442.718, 322 444.551 M 310.142 451.500 C 310.423 453.002, 311.385 453.544, 314.008 453.675 C 315.929 453.772, 316.600 453.613, 315.500 453.322 C 314.400 453.031, 312.660 452.052, 311.634 451.147 C 309.882 449.601, 309.791 449.623, 310.142 451.500 M 333.500 457 C 329.234 461.369, 329.687 462.098, 334.750 459.011 C 336.686 457.831, 338 456.215, 338 455.015 C 338 453.907, 337.866 453, 337.703 453 C 337.540 453, 335.648 454.800, 333.500 457 M 314.500 456.508 L 311.500 457.925 314.923 457.713 C 316.806 457.596, 318.531 456.938, 318.756 456.250 C 319.276 454.666, 318.268 454.727, 314.500 456.508 M 217.500 459.974 C 219.410 460.820, 225.785 461.391, 224.917 460.639 C 224.688 460.441, 222.475 460.011, 220 459.683 C 216.995 459.286, 216.165 459.383, 217.500 459.974 M 260.500 462.550 C 253.900 463.266, 244.675 463.935, 240 464.038 L 231.500 464.224 238.500 465.548 C 254.422 468.559, 266.668 470.063, 270.285 469.452 C 274.033 468.819, 274.086 468.752, 272.355 466.840 C 270.829 465.153, 270.784 464.748, 272.040 463.954 C 272.843 463.446, 275.075 462.998, 277 462.958 C 278.925 462.918, 282.300 462.512, 284.500 462.057 C 291.106 460.691, 274.510 461.032, 260.500 462.550" stroke="none" fill="#5474fc" fill-rule="evenodd"/></svg>